<svg width="26" height="26" viewBox="0 0 26 26" fill="none" xmlns="http://www.w3.org/2000/svg">
<g clip-path="url(#clip0_49_739)">
<path d="M25.0892 23.49C23.7482 21.271 22.3242 19.092 20.9842 16.873C20.7332 16.454 20.0202 16.621 20.0622 17.124C20.0622 18.087 20.1042 19.009 20.1042 19.972C19.4342 19.26 19.2662 18.422 19.1412 17.417C19.0572 16.998 18.8892 16.537 18.4292 16.412C17.7172 16.202 16.9212 16.914 16.3762 17.291C14.9942 18.255 13.7382 19.386 12.2302 20.182C10.4712 21.061 10.4292 19.805 10.8062 18.422C11.1832 16.956 11.8532 15.49 12.6072 14.192C13.9472 11.93 15.4972 9.58502 15.8742 6.94602C16.0832 5.48002 15.3292 3.26002 13.4862 3.34402C11.2242 3.42702 8.62723 5.10302 7.16123 6.77802C6.32423 7.61602 1.54923 13.899 1.08823 10.297C0.753231 7.65802 2.93123 4.43302 4.22923 2.25502C4.39723 1.96102 3.97823 1.66802 3.76923 1.91902C2.13523 3.93002 0.837231 6.48502 0.250231 9.04002C-0.0427686 10.422 0.418231 12.977 2.42823 12.433C4.77423 11.804 6.32423 9.16602 7.83223 7.40602C8.75323 6.27602 10.2192 5.43802 11.4762 4.76802C14.1562 3.34402 15.3712 5.43802 14.7012 7.86702C13.8632 10.841 11.7272 13.27 10.5122 16.077C10.0942 17.082 8.58623 20.433 10.2192 21.271C12.1042 22.234 14.6172 19.846 15.9582 18.799C15.8742 18.841 18.0942 17.04 18.2192 17.417C18.3452 17.794 18.3452 18.255 18.4292 18.674C18.5962 19.47 18.9312 20.098 19.4762 20.6C18.6802 20.559 17.8842 20.6 17.0892 20.726C16.6702 20.81 16.6282 21.438 16.9632 21.648C19.3502 22.988 22.0312 23.323 24.5862 24.203C24.9632 24.37 25.3402 23.868 25.0892 23.49ZM20.5652 21.354C20.8162 21.354 20.9002 21.145 20.8582 20.977C20.9842 20.894 21.0682 20.768 21.0682 20.6V18.925C21.9052 20.265 22.7432 21.564 23.5812 22.904C21.9892 22.443 20.3562 22.108 18.8482 21.48C19.4202 21.437 19.9922 21.395 20.5652 21.354Z" fill="#777B84"/>
</g>
<defs>
<clipPath id="clip0_49_739">
<rect width="25" height="25" fill="white" transform="translate(0.17041 0.530029)"/>
</clipPath>
</defs>
</svg>
