<svg width="17" height="18" viewBox="0 0 17 18" fill="none" xmlns="http://www.w3.org/2000/svg">
<g clip-path="url(#clip0_1_2536)">
<path d="M15.9703 1.23247C15.9067 1.23164 15.8435 1.2422 15.7837 1.26365L0.88581 6.58395C0.779482 6.6216 0.687868 6.69207 0.624185 6.78517C0.560503 6.87828 0.528047 6.9892 0.531499 7.10195C0.534971 7.2147 0.57418 7.32343 0.643468 7.41245C0.712756 7.50147 0.808538 7.56617 0.916988 7.59721L8.08355 9.64345L10.1298 16.81C10.1608 16.9184 10.2255 17.0143 10.3145 17.0835C10.4035 17.1528 10.5123 17.1921 10.6251 17.1955C10.7378 17.1989 10.8487 17.1665 10.9418 17.1028C11.0349 17.0391 11.1054 16.9475 11.1431 16.8412L16.4634 1.94325C16.5063 1.82306 16.5045 1.69145 16.4585 1.57244C16.4124 1.45343 16.3251 1.35493 16.2125 1.29492C16.1379 1.25515 16.0548 1.23376 15.9703 1.23247ZM15.0849 2.64217L10.6972 14.9249L9.11029 9.37019L11.0173 7.46164C11.094 7.38688 11.1464 7.2907 11.1675 7.18569C11.1887 7.08069 11.1776 6.97174 11.1358 6.87311C11.0941 6.77448 11.0235 6.69074 10.9334 6.63286C10.8433 6.57497 10.7378 6.54564 10.6307 6.54869C10.4927 6.55294 10.3617 6.6107 10.2654 6.70975L8.35791 8.61727L2.80216 7.02983L15.0849 2.64217ZM4.25035 9.73961L4.24567 9.74014C4.10761 9.74439 3.97662 9.80215 3.88037 9.90121L2.81621 10.9654C2.76407 11.0141 2.72227 11.0729 2.69329 11.1381C2.66432 11.2033 2.64877 11.2737 2.64757 11.345C2.64573 11.4525 2.67649 11.5581 2.73582 11.6478C2.79514 11.7374 2.88023 11.807 2.97989 11.8474C3.07955 11.8877 3.18909 11.8969 3.29409 11.8738C3.39909 11.8507 3.49462 11.7963 3.56809 11.7178L4.63278 10.6552C4.7101 10.5808 4.76314 10.4848 4.78495 10.3797C4.80675 10.2747 4.7963 10.1655 4.75497 10.0665C4.71361 9.96746 4.64329 9.88327 4.55324 9.82494C4.46319 9.76662 4.35761 9.73687 4.25035 9.73961ZM6.37452 10.8043C6.23647 10.8085 6.10548 10.8663 6.00925 10.9654L3.88037 13.0943C3.82931 13.1433 3.78855 13.202 3.76046 13.267C3.73238 13.332 3.71754 13.4019 3.71681 13.4727C3.71607 13.5435 3.72948 13.6137 3.75623 13.6793C3.78299 13.7448 3.82256 13.8044 3.87263 13.8544C3.92271 13.9044 3.98226 13.944 4.04779 13.9707C4.11333 13.9975 4.18355 14.0109 4.25433 14.0102C4.32512 14.0095 4.39506 13.9947 4.46004 13.9666C4.52502 13.9385 4.58375 13.8977 4.63278 13.8467L6.76163 11.7178C6.83857 11.643 6.89112 11.5467 6.91237 11.4416C6.93363 11.3364 6.92261 11.2273 6.88075 11.1285C6.83889 11.0298 6.76815 10.9459 6.67781 10.8881C6.58747 10.8302 6.48175 10.801 6.37452 10.8043ZM7.43921 12.9332C7.30044 12.9369 7.16861 12.9947 7.07185 13.0943L6.00925 14.1589C5.95725 14.2077 5.91558 14.2665 5.88673 14.3317C5.85788 14.3969 5.84244 14.4673 5.84132 14.5386C5.8402 14.6099 5.85342 14.6807 5.8802 14.7468C5.90699 14.8129 5.94678 14.8729 5.99723 14.9234C6.04767 14.9738 6.10774 15.0135 6.17385 15.0403C6.23997 15.067 6.31078 15.0802 6.38209 15.079C6.45339 15.0778 6.52374 15.0624 6.58894 15.0335C6.65414 15.0046 6.71287 14.9629 6.76163 14.9108L7.82583 13.8467C7.9027 13.7719 7.95519 13.6757 7.97644 13.5706C7.99769 13.4655 7.9867 13.3564 7.94491 13.2577C7.90312 13.159 7.83248 13.0752 7.74224 13.0172C7.65201 12.9593 7.54638 12.93 7.43921 12.9332ZM3.1924 14.0026C3.05129 14.0026 2.91597 14.0586 2.81617 14.1584C2.74178 14.2328 2.69111 14.3276 2.67058 14.4308C2.65005 14.534 2.66058 14.641 2.70083 14.7382C2.72755 14.8028 2.76674 14.8615 2.81614 14.9109C2.86555 14.9603 2.92421 14.9995 2.98876 15.0262C3.11915 15.0802 3.26564 15.0802 3.39603 15.0262C3.47688 14.9927 3.54823 14.9398 3.60374 14.8722C3.65926 14.8045 3.69724 14.7243 3.71431 14.6384C3.73138 14.5526 3.72702 14.4639 3.70161 14.3802C3.67621 14.2964 3.63054 14.2202 3.56866 14.1584C3.46884 14.0586 3.33351 14.0026 3.1924 14.0026Z" fill="white"/>
</g>
<defs>
<clipPath id="clip0_1_2536">
<rect width="17" height="17" fill="white" transform="translate(0 0.700195)"/>
</clipPath>
</defs>
</svg>
