<svg width="17" height="18" viewBox="0 0 17 18" fill="none" xmlns="http://www.w3.org/2000/svg">
<g clip-path="url(#clip0_1_1674)">
<path d="M15.9704 0.732467C15.9069 0.731637 15.8437 0.742196 15.7838 0.763645L0.885926 6.08395C0.779598 6.1216 0.687983 6.19207 0.624301 6.28517C0.560619 6.37828 0.528163 6.4892 0.531615 6.60195C0.535087 6.7147 0.574296 6.82343 0.643584 6.91245C0.712872 7.00147 0.808653 7.06617 0.917103 7.09721L8.08367 9.14345L10.1299 16.31C10.1609 16.4184 10.2256 16.5143 10.3146 16.5835C10.4037 16.6528 10.5124 16.6921 10.6252 16.6955C10.7379 16.6989 10.8488 16.6665 10.9419 16.6028C11.035 16.5391 11.1055 16.4475 11.1432 16.3412L16.4635 1.44325C16.5064 1.32306 16.5047 1.19145 16.4586 1.07244C16.4125 0.953427 16.3252 0.854933 16.2126 0.794922C16.138 0.755146 16.055 0.733758 15.9704 0.732467ZM15.085 2.14217L10.6973 14.4249L9.11041 8.87019L11.0174 6.96164C11.0941 6.88688 11.1465 6.7907 11.1676 6.68569C11.1888 6.58069 11.1777 6.47174 11.136 6.37311C11.0942 6.27448 11.0236 6.19074 10.9335 6.13286C10.8434 6.07497 10.7379 6.04564 10.6308 6.04869C10.4928 6.05294 10.3618 6.1107 10.2655 6.20975L8.35802 8.11727L2.80228 6.52983L15.085 2.14217ZM4.25046 9.23961L4.24578 9.24014C4.10773 9.24439 3.97674 9.30215 3.88048 9.40121L2.81632 10.4654C2.76418 10.5141 2.72238 10.5729 2.69341 10.6381C2.66444 10.7033 2.64889 10.7737 2.64768 10.845C2.64584 10.9525 2.67661 11.0581 2.73593 11.1478C2.79525 11.2374 2.88035 11.307 2.98001 11.3474C3.07966 11.3877 3.18921 11.3969 3.29421 11.3738C3.39921 11.3507 3.49473 11.2963 3.56821 11.2178L4.6329 10.1552C4.71022 10.0808 4.76326 9.98478 4.78506 9.87972C4.80686 9.77466 4.79642 9.66547 4.75509 9.56646C4.71372 9.46746 4.64341 9.38327 4.55335 9.32494C4.4633 9.26662 4.35772 9.23687 4.25046 9.23961ZM6.37463 10.3043C6.23658 10.3085 6.10559 10.3663 6.00937 10.4654L3.88048 12.5943C3.82942 12.6433 3.78866 12.702 3.76058 12.767C3.73249 12.832 3.71765 12.9019 3.71692 12.9727C3.71619 13.0435 3.72959 13.1137 3.75635 13.1793C3.78311 13.2448 3.82268 13.3044 3.87275 13.3544C3.92282 13.4044 3.98237 13.444 4.04791 13.4707C4.11345 13.4975 4.18366 13.5109 4.25445 13.5102C4.32524 13.5095 4.39517 13.4947 4.46015 13.4666C4.52514 13.4385 4.58387 13.3977 4.6329 13.3467L6.76175 11.2178C6.83869 11.143 6.89123 11.0467 6.91249 10.9416C6.93375 10.8364 6.92272 10.7273 6.88086 10.6285C6.839 10.5298 6.76826 10.4459 6.67792 10.3881C6.58758 10.3302 6.48187 10.301 6.37463 10.3043ZM7.43933 12.4332C7.30055 12.4369 7.16873 12.4947 7.07197 12.5943L6.00937 13.6589C5.95736 13.7077 5.9157 13.7665 5.88685 13.8317C5.858 13.8969 5.84256 13.9673 5.84143 14.0386C5.84031 14.1099 5.85354 14.1807 5.88032 14.2468C5.9071 14.3129 5.9469 14.3729 5.99735 14.4234C6.04779 14.4738 6.10785 14.5135 6.17397 14.5403C6.24008 14.567 6.31089 14.5802 6.3822 14.579C6.45351 14.5778 6.52385 14.5624 6.58905 14.5335C6.65426 14.5046 6.71298 14.4629 6.76175 14.4108L7.82594 13.3467C7.90281 13.2719 7.95531 13.1757 7.97656 13.0706C7.99781 12.9655 7.98682 12.8564 7.94503 12.7577C7.90324 12.659 7.8326 12.5752 7.74236 12.5172C7.65212 12.4593 7.5465 12.43 7.43933 12.4332ZM3.19251 13.5026C3.05141 13.5026 2.91608 13.5586 2.81629 13.6584C2.74189 13.7328 2.69123 13.8276 2.6707 13.9308C2.65017 14.034 2.66069 14.141 2.70094 14.2382C2.72767 14.3028 2.76685 14.3615 2.81626 14.4109C2.86566 14.4603 2.92432 14.4995 2.98888 14.5262C3.11927 14.5802 3.26576 14.5802 3.39615 14.5262C3.477 14.4927 3.54834 14.4398 3.60386 14.3722C3.65938 14.3045 3.69735 14.2243 3.71443 14.1384C3.7315 14.0526 3.72714 13.9639 3.70173 13.8802C3.67632 13.7964 3.63066 13.7202 3.56877 13.6584C3.46896 13.5586 3.33363 13.5026 3.19251 13.5026Z" fill="white"/>
<path d="M15.9704 0.732467C15.9069 0.731637 15.8437 0.742196 15.7838 0.763645L0.885926 6.08395C0.779598 6.1216 0.687983 6.19207 0.624301 6.28517C0.560619 6.37828 0.528163 6.4892 0.531615 6.60195C0.535087 6.7147 0.574296 6.82343 0.643584 6.91245C0.712872 7.00147 0.808653 7.06617 0.917103 7.09721L8.08367 9.14345L10.1299 16.31C10.1609 16.4184 10.2256 16.5143 10.3146 16.5835C10.4037 16.6528 10.5124 16.6921 10.6252 16.6955C10.7379 16.6989 10.8488 16.6665 10.9419 16.6028C11.035 16.5391 11.1055 16.4475 11.1432 16.3412L16.4635 1.44325C16.5064 1.32306 16.5047 1.19145 16.4586 1.07244C16.4125 0.953427 16.3252 0.854933 16.2126 0.794922C16.138 0.755146 16.055 0.733758 15.9704 0.732467ZM15.085 2.14217L10.6973 14.4249L9.11041 8.87019L11.0174 6.96164C11.0941 6.88688 11.1465 6.7907 11.1676 6.68569C11.1888 6.58069 11.1777 6.47174 11.136 6.37311C11.0942 6.27448 11.0236 6.19074 10.9335 6.13286C10.8434 6.07497 10.7379 6.04564 10.6308 6.04869C10.4928 6.05294 10.3618 6.1107 10.2655 6.20975L8.35802 8.11727L2.80228 6.52983L15.085 2.14217ZM4.25046 9.23961L4.24578 9.24014C4.10773 9.24439 3.97674 9.30215 3.88048 9.40121L2.81632 10.4654C2.76418 10.5141 2.72238 10.5729 2.69341 10.6381C2.66444 10.7033 2.64889 10.7737 2.64768 10.845C2.64584 10.9525 2.67661 11.0581 2.73593 11.1478C2.79525 11.2374 2.88035 11.307 2.98001 11.3474C3.07966 11.3877 3.18921 11.3969 3.29421 11.3738C3.39921 11.3507 3.49473 11.2963 3.56821 11.2178L4.6329 10.1552C4.71022 10.0808 4.76326 9.98478 4.78506 9.87972C4.80686 9.77466 4.79642 9.66547 4.75509 9.56646C4.71372 9.46746 4.64341 9.38327 4.55335 9.32494C4.4633 9.26662 4.35772 9.23687 4.25046 9.23961ZM6.37463 10.3043C6.23658 10.3085 6.10559 10.3663 6.00937 10.4654L3.88048 12.5943C3.82942 12.6433 3.78866 12.702 3.76058 12.767C3.73249 12.832 3.71765 12.9019 3.71692 12.9727C3.71619 13.0435 3.72959 13.1137 3.75635 13.1793C3.78311 13.2448 3.82268 13.3044 3.87275 13.3544C3.92282 13.4044 3.98237 13.444 4.04791 13.4707C4.11345 13.4975 4.18366 13.5109 4.25445 13.5102C4.32524 13.5095 4.39517 13.4947 4.46015 13.4666C4.52514 13.4385 4.58387 13.3977 4.6329 13.3467L6.76175 11.2178C6.83869 11.143 6.89123 11.0467 6.91249 10.9416C6.93375 10.8364 6.92272 10.7273 6.88086 10.6285C6.839 10.5298 6.76826 10.4459 6.67792 10.3881C6.58758 10.3302 6.48187 10.301 6.37463 10.3043ZM7.43933 12.4332C7.30055 12.4369 7.16873 12.4947 7.07197 12.5943L6.00937 13.6589C5.95736 13.7077 5.9157 13.7665 5.88685 13.8317C5.858 13.8969 5.84256 13.9673 5.84143 14.0386C5.84031 14.1099 5.85354 14.1807 5.88032 14.2468C5.9071 14.3129 5.9469 14.3729 5.99735 14.4234C6.04779 14.4738 6.10785 14.5135 6.17397 14.5403C6.24008 14.567 6.31089 14.5802 6.3822 14.579C6.45351 14.5778 6.52385 14.5624 6.58905 14.5335C6.65426 14.5046 6.71298 14.4629 6.76175 14.4108L7.82594 13.3467C7.90281 13.2719 7.95531 13.1757 7.97656 13.0706C7.99781 12.9655 7.98682 12.8564 7.94503 12.7577C7.90324 12.659 7.8326 12.5752 7.74236 12.5172C7.65212 12.4593 7.5465 12.43 7.43933 12.4332ZM3.19251 13.5026C3.05141 13.5026 2.91608 13.5586 2.81629 13.6584C2.74189 13.7328 2.69123 13.8276 2.6707 13.9308C2.65017 14.034 2.66069 14.141 2.70094 14.2382C2.72767 14.3028 2.76685 14.3615 2.81626 14.4109C2.86566 14.4603 2.92432 14.4995 2.98888 14.5262C3.11927 14.5802 3.26576 14.5802 3.39615 14.5262C3.477 14.4927 3.54834 14.4398 3.60386 14.3722C3.65938 14.3045 3.69735 14.2243 3.71443 14.1384C3.7315 14.0526 3.72714 13.9639 3.70173 13.8802C3.67632 13.7964 3.63066 13.7202 3.56877 13.6584C3.46896 13.5586 3.33363 13.5026 3.19251 13.5026Z" fill="#161617"/>
</g>
<defs>
<clipPath id="clip0_1_1674">
<rect width="17" height="17" fill="white" transform="translate(0 0.200195)"/>
</clipPath>
</defs>
</svg>
