<svg width="48" height="49" viewBox="0 0 48 49" fill="none" xmlns="http://www.w3.org/2000/svg">
<rect y="0.0600586" width="48" height="48" rx="24" fill="#00002D" fill-opacity="0.09"/>
<path d="M31.4569 23.8576C31.435 23.8082 30.9056 22.6338 29.7287 21.4569C28.1606 19.8888 26.18 19.0601 24 19.0601C21.82 19.0601 19.8394 19.8888 18.2712 21.4569C17.0944 22.6338 16.5625 23.8101 16.5431 23.8576C16.5147 23.9215 16.5 23.9907 16.5 24.0607C16.5 24.1307 16.5147 24.1999 16.5431 24.2638C16.565 24.3132 17.0944 25.4869 18.2712 26.6638C19.8394 28.2313 21.82 29.0601 24 29.0601C26.18 29.0601 28.1606 28.2313 29.7287 26.6638C30.9056 25.4869 31.435 24.3132 31.4569 24.2638C31.4853 24.1999 31.5 24.1307 31.5 24.0607C31.5 23.9907 31.4853 23.9215 31.4569 23.8576ZM24 26.5601C23.5055 26.5601 23.0222 26.4134 22.6111 26.1387C22.1999 25.864 21.8795 25.4736 21.6903 25.0168C21.5011 24.56 21.4516 24.0573 21.548 23.5723C21.6445 23.0874 21.8826 22.6419 22.2322 22.2923C22.5819 21.9427 23.0273 21.7046 23.5123 21.6081C23.9972 21.5116 24.4999 21.5611 24.9567 21.7504C25.4135 21.9396 25.804 22.26 26.0787 22.6711C26.3534 23.0823 26.5 23.5656 26.5 24.0601C26.5 24.7231 26.2366 25.359 25.7678 25.8278C25.2989 26.2967 24.663 26.5601 24 26.5601Z" fill="#1C2024"/>
</svg>
