<svg width="48" height="49" viewBox="0 0 48 49" fill="none" xmlns="http://www.w3.org/2000/svg">
<rect y="0.560059" width="48" height="48" rx="24" fill="#DDEAF8" fill-opacity="0.08"/>
<path d="M31.4569 24.3576C31.435 24.3082 30.9056 23.1338 29.7287 21.9569C28.1606 20.3888 26.18 19.5601 24 19.5601C21.82 19.5601 19.8394 20.3888 18.2712 21.9569C17.0944 23.1338 16.5625 24.3101 16.5431 24.3576C16.5147 24.4215 16.5 24.4907 16.5 24.5607C16.5 24.6307 16.5147 24.6999 16.5431 24.7638C16.565 24.8132 17.0944 25.9869 18.2712 27.1638C19.8394 28.7313 21.82 29.5601 24 29.5601C26.18 29.5601 28.1606 28.7313 29.7287 27.1638C30.9056 25.9869 31.435 24.8132 31.4569 24.7638C31.4853 24.6999 31.5 24.6307 31.5 24.5607C31.5 24.4907 31.4853 24.4215 31.4569 24.3576ZM24 27.0601C23.5055 27.0601 23.0222 26.9134 22.6111 26.6387C22.1999 26.364 21.8795 25.9736 21.6903 25.5168C21.5011 25.06 21.4516 24.5573 21.548 24.0723C21.6445 23.5874 21.8826 23.1419 22.2322 22.7923C22.5819 22.4427 23.0273 22.2046 23.5123 22.1081C23.9972 22.0116 24.4999 22.0611 24.9567 22.2504C25.4135 22.4396 25.804 22.76 26.0787 23.1711C26.3534 23.5823 26.5 24.0656 26.5 24.5601C26.5 25.2231 26.2366 25.859 25.7678 26.3278C25.2989 26.7967 24.663 27.0601 24 27.0601Z" fill="#EDEEF0"/>
</svg>
