<svg width="26" height="26" viewBox="0 0 26 26" fill="none" xmlns="http://www.w3.org/2000/svg">
<g clip-path="url(#clip0_1_1153)">
<path d="M24.939 22.99C23.598 20.771 22.174 18.592 20.834 16.373C20.583 15.954 19.87 16.121 19.912 16.624C19.912 17.587 19.954 18.509 19.954 19.472C19.284 18.76 19.116 17.922 18.991 16.917C18.907 16.498 18.739 16.037 18.279 15.912C17.567 15.702 16.771 16.414 16.226 16.791C14.844 17.755 13.588 18.886 12.08 19.682C10.321 20.561 10.279 19.305 10.656 17.922C11.033 16.456 11.703 14.99 12.457 13.692C13.797 11.43 15.347 9.08502 15.724 6.44602C15.933 4.98002 15.179 2.76002 13.336 2.84402C11.074 2.92702 8.47702 4.60302 7.01102 6.27802C6.17402 7.11602 1.39902 13.399 0.938024 9.79702C0.603024 7.15802 2.78102 3.93302 4.07902 1.75502C4.24702 1.46102 3.82802 1.16802 3.61902 1.41902C1.98502 3.43002 0.687024 5.98502 0.100024 8.54002C-0.192976 9.92202 0.268024 12.477 2.27802 11.933C4.62402 11.304 6.17402 8.66602 7.68202 6.90602C8.60302 5.77602 10.069 4.93802 11.326 4.26802C14.006 2.84402 15.221 4.93802 14.551 7.36702C13.713 10.341 11.577 12.77 10.362 15.577C9.94402 16.582 8.43602 19.933 10.069 20.771C11.954 21.734 14.467 19.346 15.808 18.299C15.724 18.341 17.944 16.54 18.069 16.917C18.195 17.294 18.195 17.755 18.279 18.174C18.446 18.97 18.781 19.598 19.326 20.1C18.53 20.059 17.734 20.1 16.939 20.226C16.52 20.31 16.478 20.938 16.813 21.148C19.2 22.488 21.881 22.823 24.436 23.703C24.813 23.87 25.19 23.368 24.939 22.99ZM20.415 20.854C20.666 20.854 20.75 20.645 20.708 20.477C20.834 20.394 20.918 20.268 20.918 20.1V18.425C21.755 19.765 22.593 21.064 23.431 22.404C21.839 21.943 20.206 21.608 18.698 20.98C19.27 20.937 19.842 20.895 20.415 20.854Z" fill="#80838D"/>
</g>
<defs>
<clipPath id="clip0_1_1153">
<rect width="25" height="25" fill="white" transform="translate(0.0200195 0.0300293)"/>
</clipPath>
</defs>
</svg>
