<svg width="17" height="18" viewBox="0 0 17 18" fill="none" xmlns="http://www.w3.org/2000/svg">
<g clip-path="url(#clip0_1_2521)">
<path d="M6.52332 7.02276C5.51137 7.02276 4.68799 6.19948 4.68799 5.18765C4.68799 4.17582 5.51137 3.35254 6.52332 3.35254C7.53541 3.35254 8.35866 4.17582 8.35866 5.18765C8.35866 6.19948 7.53541 7.02276 6.52332 7.02276ZM6.52332 4.35046C6.06173 4.35046 5.68603 4.72598 5.68603 5.18765C5.68603 5.64932 6.06173 6.02484 6.52332 6.02484C6.98505 6.02484 7.36061 5.64932 7.36061 5.18765C7.36061 4.72598 6.98505 4.35046 6.52332 4.35046Z" fill="white"/>
<path d="M8.52774 9.69466H4.5188C4.24317 9.69466 4.01978 9.47129 4.01978 9.1957V8.52769C4.01978 7.1475 5.14284 6.02457 6.5232 6.02457C7.90356 6.02457 9.02676 7.1475 9.02676 8.52769V9.1957C9.02676 9.47129 8.80323 9.69466 8.52774 9.69466ZM5.01782 8.69674H8.02871V8.52769C8.02871 7.69765 7.35334 7.02249 6.5232 7.02249C5.69319 7.02249 5.01782 7.69765 5.01782 8.52769V8.69674ZM15.0487 5.95348H12.2692C11.2573 5.95348 10.4339 5.13033 10.4339 4.11851V1.33929C10.4339 1.0638 10.6573 0.840332 10.9329 0.840332C11.2085 0.840332 11.4319 1.0638 11.4319 1.33929V4.11851C11.4319 4.58004 11.8075 4.95556 12.2692 4.95556H15.0487C15.3243 4.95556 15.5477 5.17906 15.5477 5.45452C15.5477 5.73012 15.3243 5.95348 15.0487 5.95348Z" fill="white"/>
<path d="M13.8729 17.7102H3.18275C2.17066 17.7102 1.34741 16.8871 1.34741 15.8752V2.51516C1.34741 1.50327 2.17066 0.680176 3.18275 0.680176H10.9331C11.0654 0.680204 11.1923 0.732788 11.2859 0.826361L15.562 5.10152C15.6556 5.19507 15.7082 5.32195 15.7082 5.45426V15.8752C15.7081 16.8871 14.8848 17.7102 13.8729 17.7102ZM3.18275 1.67803C2.72102 1.67803 2.34546 2.05355 2.34546 2.51516V15.8752C2.34546 16.3368 2.72105 16.7123 3.18275 16.7123H13.8729C14.3346 16.7123 14.7101 16.3368 14.7101 15.8752V5.66099L10.7264 1.67803H3.18275Z" fill="white"/>
<path d="M12.5365 15.0387H4.5188C4.24317 15.0387 4.01978 14.8153 4.01978 14.5397C4.01978 14.2641 4.24317 14.0408 4.5188 14.0408H12.5365C12.812 14.0408 13.0356 14.2641 13.0356 14.5397C13.0356 14.8153 12.812 15.0387 12.5365 15.0387ZM12.5365 12.3664H4.5188C4.24317 12.3664 4.01978 12.143 4.01978 11.8674C4.01978 11.592 4.24317 11.3685 4.5188 11.3685H12.5365C12.812 11.3685 13.0356 11.592 13.0356 11.8674C13.0356 12.143 12.812 12.3664 12.5365 12.3664ZM12.5365 9.69421H11.2001C10.9246 9.69421 10.7011 9.47084 10.7011 9.19525C10.7011 8.91966 10.9246 8.69629 11.2001 8.69629H12.5365C12.812 8.69629 13.0356 8.91966 13.0356 9.19525C13.0356 9.47084 12.812 9.69421 12.5365 9.69421Z" fill="white"/>
</g>
<defs>
<clipPath id="clip0_1_2521">
<rect width="17" height="17.03" fill="white" transform="translate(0 0.680176)"/>
</clipPath>
</defs>
</svg>
