<svg width="17" height="18" viewBox="0 0 17 18" fill="none" xmlns="http://www.w3.org/2000/svg">
<g clip-path="url(#clip0_1_1658)">
<path d="M6.52328 6.52276C5.51133 6.52276 4.68794 5.69948 4.68794 4.68765C4.68794 3.67582 5.51133 2.85254 6.52328 2.85254C7.53536 2.85254 8.35861 3.67582 8.35861 4.68765C8.35861 5.69948 7.53536 6.52276 6.52328 6.52276ZM6.52328 3.85046C6.06168 3.85046 5.68599 4.22598 5.68599 4.68765C5.68599 5.14932 6.06168 5.52484 6.52328 5.52484C6.98501 5.52484 7.36057 5.14932 7.36057 4.68765C7.36057 4.22598 6.98501 3.85046 6.52328 3.85046Z" fill="white"/>
<path d="M6.52328 6.52276C5.51133 6.52276 4.68794 5.69948 4.68794 4.68765C4.68794 3.67582 5.51133 2.85254 6.52328 2.85254C7.53536 2.85254 8.35861 3.67582 8.35861 4.68765C8.35861 5.69948 7.53536 6.52276 6.52328 6.52276ZM6.52328 3.85046C6.06168 3.85046 5.68599 4.22598 5.68599 4.68765C5.68599 5.14932 6.06168 5.52484 6.52328 5.52484C6.98501 5.52484 7.36057 5.14932 7.36057 4.68765C7.36057 4.22598 6.98501 3.85046 6.52328 3.85046Z" fill="#161617"/>
<path d="M8.52781 9.19466H4.51887C4.24325 9.19466 4.01985 8.97129 4.01985 8.6957V8.02769C4.01985 6.6475 5.14292 5.52457 6.52328 5.52457C7.90364 5.52457 9.02683 6.6475 9.02683 8.02769V8.6957C9.02683 8.97129 8.80331 9.19466 8.52781 9.19466ZM5.01789 8.19674H8.02879V8.02769C8.02879 7.19765 7.35342 6.52249 6.52328 6.52249C5.69327 6.52249 5.01789 7.19765 5.01789 8.02769V8.19674ZM15.0488 5.45348H12.2693C11.2574 5.45348 10.434 4.63033 10.434 3.61851V0.839293C10.434 0.5638 10.6574 0.340332 10.933 0.340332C11.2086 0.340332 11.432 0.5638 11.432 0.839293V3.61851C11.432 4.08004 11.8076 4.45556 12.2693 4.45556H15.0488C15.3244 4.45556 15.5478 4.67906 15.5478 4.95452C15.5478 5.23012 15.3244 5.45348 15.0488 5.45348Z" fill="white"/>
<path d="M8.52781 9.19466H4.51887C4.24325 9.19466 4.01985 8.97129 4.01985 8.6957V8.02769C4.01985 6.6475 5.14292 5.52457 6.52328 5.52457C7.90364 5.52457 9.02683 6.6475 9.02683 8.02769V8.6957C9.02683 8.97129 8.80331 9.19466 8.52781 9.19466ZM5.01789 8.19674H8.02879V8.02769C8.02879 7.19765 7.35342 6.52249 6.52328 6.52249C5.69327 6.52249 5.01789 7.19765 5.01789 8.02769V8.19674ZM15.0488 5.45348H12.2693C11.2574 5.45348 10.434 4.63033 10.434 3.61851V0.839293C10.434 0.5638 10.6574 0.340332 10.933 0.340332C11.2086 0.340332 11.432 0.5638 11.432 0.839293V3.61851C11.432 4.08004 11.8076 4.45556 12.2693 4.45556H15.0488C15.3244 4.45556 15.5478 4.67906 15.5478 4.95452C15.5478 5.23012 15.3244 5.45348 15.0488 5.45348Z" fill="#161617"/>
<path d="M13.8728 17.2102H3.18269C2.1706 17.2102 1.34735 16.3871 1.34735 15.3752V2.01516C1.34735 1.00327 2.1706 0.180176 3.18269 0.180176H10.933C11.0653 0.180204 11.1922 0.232788 11.2858 0.326361L15.5619 4.60152C15.6555 4.69507 15.7081 4.82195 15.7081 4.95426V15.3752C15.708 16.3871 14.8847 17.2102 13.8728 17.2102ZM3.18269 1.17803C2.72096 1.17803 2.34539 1.55355 2.34539 2.01516V15.3752C2.34539 15.8368 2.72099 16.2123 3.18269 16.2123H13.8728C14.3345 16.2123 14.7101 15.8368 14.7101 15.3752V5.16099L10.7264 1.17803H3.18269Z" fill="white"/>
<path d="M13.8728 17.2102H3.18269C2.1706 17.2102 1.34735 16.3871 1.34735 15.3752V2.01516C1.34735 1.00327 2.1706 0.180176 3.18269 0.180176H10.933C11.0653 0.180204 11.1922 0.232788 11.2858 0.326361L15.5619 4.60152C15.6555 4.69507 15.7081 4.82195 15.7081 4.95426V15.3752C15.708 16.3871 14.8847 17.2102 13.8728 17.2102ZM3.18269 1.17803C2.72096 1.17803 2.34539 1.55355 2.34539 2.01516V15.3752C2.34539 15.8368 2.72099 16.2123 3.18269 16.2123H13.8728C14.3345 16.2123 14.7101 15.8368 14.7101 15.3752V5.16099L10.7264 1.17803H3.18269Z" fill="#161617"/>
<path d="M12.5366 14.5387H4.51887C4.24325 14.5387 4.01985 14.3153 4.01985 14.0397C4.01985 13.7641 4.24325 13.5408 4.51887 13.5408H12.5366C12.8121 13.5408 13.0356 13.7641 13.0356 14.0397C13.0356 14.3153 12.8121 14.5387 12.5366 14.5387ZM12.5366 11.8664H4.51887C4.24325 11.8664 4.01985 11.643 4.01985 11.3674C4.01985 11.092 4.24325 10.8685 4.51887 10.8685H12.5366C12.8121 10.8685 13.0356 11.092 13.0356 11.3674C13.0356 11.643 12.8121 11.8664 12.5366 11.8664ZM12.5366 9.19421H11.2002C10.9247 9.19421 10.7012 8.97084 10.7012 8.69525C10.7012 8.41966 10.9247 8.19629 11.2002 8.19629H12.5366C12.8121 8.19629 13.0356 8.41966 13.0356 8.69525C13.0356 8.97084 12.8121 9.19421 12.5366 9.19421Z" fill="white"/>
<path d="M12.5366 14.5387H4.51887C4.24325 14.5387 4.01985 14.3153 4.01985 14.0397C4.01985 13.7641 4.24325 13.5408 4.51887 13.5408H12.5366C12.8121 13.5408 13.0356 13.7641 13.0356 14.0397C13.0356 14.3153 12.8121 14.5387 12.5366 14.5387ZM12.5366 11.8664H4.51887C4.24325 11.8664 4.01985 11.643 4.01985 11.3674C4.01985 11.092 4.24325 10.8685 4.51887 10.8685H12.5366C12.8121 10.8685 13.0356 11.092 13.0356 11.3674C13.0356 11.643 12.8121 11.8664 12.5366 11.8664ZM12.5366 9.19421H11.2002C10.9247 9.19421 10.7012 8.97084 10.7012 8.69525C10.7012 8.41966 10.9247 8.19629 11.2002 8.19629H12.5366C12.8121 8.19629 13.0356 8.41966 13.0356 8.69525C13.0356 8.97084 12.8121 9.19421 12.5366 9.19421Z" fill="#161617"/>
</g>
<defs>
<clipPath id="clip0_1_1658">
<rect width="17" height="17.03" fill="white" transform="translate(0 0.180176)"/>
</clipPath>
</defs>
</svg>
