<svg width="28" height="29" viewBox="0 0 28 29" fill="none" xmlns="http://www.w3.org/2000/svg">
<g clip-path="url(#clip0_1_1205)">
<g clip-path="url(#clip1_1_1205)">
<g clip-path="url(#clip2_1_1205)">
<g clip-path="url(#clip3_1_1205)">
<mask id="mask0_1_1205" style="mask-type:luminance" maskUnits="userSpaceOnUse" x="-2" y="0" width="32" height="29">
<path d="M25.9189 0.930054H2.08109C-0.00864017 0.930054 -1.7027 2.62411 -1.7027 4.71384V25.1463C-1.7027 27.236 -0.00864017 28.9301 2.08109 28.9301H25.9189C28.0086 28.9301 29.7027 27.236 29.7027 25.1463V4.71384C29.7027 2.62411 28.0086 0.930054 25.9189 0.930054Z" fill="white"/>
</mask>
<g mask="url(#mask0_1_1205)">
<path d="M25.9189 0.930054H2.08109C-0.00864017 0.930054 -1.7027 2.62411 -1.7027 4.71384V25.1463C-1.7027 27.236 -0.00864017 28.9301 2.08109 28.9301H25.9189C28.0086 28.9301 29.7027 27.236 29.7027 25.1463V4.71384C29.7027 2.62411 28.0086 0.930054 25.9189 0.930054Z" fill="url(#paint0_radial_1_1205)"/>
<path d="M-1.7027 27.0381H31.2162V28.93H-1.7027V27.0381Z" fill="#C96700"/>
<path d="M-1.7027 27.0381H21.8512V28.93H-1.7027V27.0381Z" fill="#F4A756"/>
<path d="M-1.7027 27.0381H17.7338V28.93H-1.7027V27.0381Z" fill="#F7CA9A"/>
<path d="M14.3008 24.5787C10.5285 24.5744 7.06998 22.4653 5.32036 19.1019C3.57036 15.7391 3.81819 11.6766 5.9636 8.55402C7.49471 6.32481 9.84273 4.799 12.492 4.3124C15.1406 3.82581 17.8734 4.41778 20.0887 5.95891C24.6939 9.16246 25.851 15.5395 22.6671 20.1744C20.7684 22.9383 17.6398 24.5852 14.3008 24.5787ZM14.3348 4.92992C13.7641 4.92992 13.1942 4.981 12.6325 5.08391C8.90284 5.76878 5.95092 8.64729 5.15254 12.3772C4.35454 16.1066 5.86768 19.9531 8.98627 22.1219C13.2366 25.0822 19.0867 24.0043 22.0246 19.7272C24.0034 16.8452 24.2321 13.0966 22.6189 9.99243C21.0057 6.88821 17.8161 4.93881 14.3348 4.92954V4.92992Z" fill="white"/>
<path d="M11.4162 17.9169L10.1526 14.216C10.1503 14.2097 10.1496 14.2029 10.1504 14.1962C10.1513 14.1895 10.1538 14.1831 10.1577 14.1776L12.7663 10.38C12.7709 10.3736 12.7772 10.3685 12.7844 10.3654C12.7917 10.3622 12.7997 10.3611 12.8075 10.3622C12.8153 10.3634 12.8226 10.3667 12.8287 10.3717C12.8348 10.3768 12.8393 10.3833 12.842 10.3908L14.1054 14.0913C14.1076 14.0978 14.1082 14.1046 14.1073 14.1113C14.1064 14.1181 14.1039 14.1245 14.1001 14.1301L11.4917 17.9277C11.4871 17.9342 11.4809 17.9392 11.4736 17.9424C11.4663 17.9455 11.4583 17.9466 11.4505 17.9455C11.4427 17.9442 11.4355 17.9409 11.4295 17.9359C11.4235 17.9308 11.4189 17.9243 11.4162 17.9169ZM11.9369 18.3591L15.8228 18.2412C15.8296 18.2408 15.8362 18.2389 15.8421 18.2357C15.8481 18.2325 15.8533 18.2279 15.8573 18.2225L18.4656 14.4249C18.4702 14.4184 18.4729 14.4108 18.4733 14.4029C18.4738 14.395 18.472 14.3872 18.4683 14.3802C18.4646 14.3732 18.459 14.3674 18.4521 14.3634C18.4452 14.3594 18.4374 14.3575 18.4295 14.3579L14.5426 14.4765C14.5359 14.4765 14.5293 14.4782 14.5234 14.4814C14.5175 14.4846 14.5125 14.4892 14.5089 14.4949L11.9004 18.2925C11.8961 18.299 11.8936 18.3065 11.8933 18.3144C11.893 18.3222 11.8948 18.3299 11.8986 18.3368C11.9023 18.3436 11.9079 18.3493 11.9146 18.3532C11.9214 18.3572 11.9291 18.3592 11.9369 18.3591ZM17.2077 12.4333L16.7901 12.2793C16.5814 12.2032 16.3552 12.1884 16.1383 12.2367C15.9214 12.285 15.7228 12.3944 15.5661 12.5519L15.2719 12.8465L15.4422 12.4656C15.5332 12.2617 15.5646 12.0361 15.5328 11.815C15.501 11.594 15.4073 11.3864 15.2624 11.2164L14.9701 10.8785L15.3864 11.0321C15.5942 11.1095 15.8199 11.1258 16.0368 11.0792C16.2536 11.0327 16.4527 10.9251 16.6104 10.7692L16.874 10.5094L16.7256 10.8488C16.6359 11.0537 16.6062 11.2799 16.6398 11.501C16.6735 11.7222 16.7692 11.9293 16.9158 12.0982L17.2077 12.4333Z" fill="white"/>
</g>
</g>
</g>
</g>
</g>
<defs>
<radialGradient id="paint0_radial_1_1205" cx="0" cy="0" r="1" gradientUnits="userSpaceOnUse" gradientTransform="translate(14 14.9301) rotate(90) scale(21.2838 23.8723)">
<stop stop-color="#F7840A"/>
<stop offset="1" stop-color="#B66108"/>
</radialGradient>
<clipPath id="clip0_1_1205">
<rect y="0.930054" width="28" height="28" rx="4" fill="white"/>
</clipPath>
<clipPath id="clip1_1_1205">
<rect y="0.930054" width="28" height="28" rx="4" fill="white"/>
</clipPath>
<clipPath id="clip2_1_1205">
<rect width="28" height="28" fill="white" transform="translate(0 0.930054)"/>
</clipPath>
<clipPath id="clip3_1_1205">
<rect width="31.4054" height="28" fill="white" transform="translate(-1.7027 0.930054)"/>
</clipPath>
</defs>
</svg>
