<svg width="48" height="49" viewBox="0 0 48 49" fill="none" xmlns="http://www.w3.org/2000/svg">
<rect y="0.530029" width="48" height="48" rx="24" fill="#00002D" fill-opacity="0.09"/>
<path d="M29.5 19.03H18.5C18.2348 19.03 17.9804 19.1354 17.7929 19.3229C17.6054 19.5105 17.5 19.7648 17.5 20.03V29.03C17.5 29.2952 17.6054 29.5496 17.7929 29.7371C17.9804 29.9247 18.2348 30.03 18.5 30.03H29.5C29.7652 30.03 30.0196 29.9247 30.2071 29.7371C30.3946 29.5496 30.5 29.2952 30.5 29.03V20.03C30.5 19.7648 30.3946 19.5105 30.2071 19.3229C30.0196 19.1354 29.7652 19.03 29.5 19.03ZM22.4375 27.78C22.5038 27.8956 22.5215 28.0329 22.4866 28.1615C22.4517 28.2901 22.3672 28.3997 22.2516 28.466C22.1359 28.5323 21.9987 28.5499 21.8701 28.5151C21.7414 28.4802 21.6319 28.3956 21.5656 28.28L19.5656 24.78C19.5224 24.7045 19.4997 24.6189 19.4997 24.5319C19.4997 24.4449 19.5224 24.3593 19.5656 24.2838L21.5656 20.7838C21.6314 20.6682 21.7405 20.5834 21.8688 20.5482C21.997 20.513 22.1341 20.5302 22.2497 20.596C22.3653 20.6618 22.45 20.7708 22.4853 20.8991C22.5205 21.0274 22.5033 21.1644 22.4375 21.28L20.5756 24.53L22.4375 27.78ZM28.4375 24.78L26.4375 28.28C26.3717 28.3952 26.2628 28.4796 26.1348 28.5145C26.0068 28.5494 25.8702 28.5321 25.755 28.4663C25.6398 28.4005 25.5555 28.2916 25.5205 28.1636C25.4856 28.0356 25.5029 27.899 25.5688 27.7838L27.4275 24.5338L25.5656 21.28C25.5328 21.2228 25.5116 21.1596 25.5031 21.0942C25.4947 21.0287 25.4993 20.9622 25.5165 20.8986C25.5338 20.8349 25.5634 20.7752 25.6038 20.7229C25.6441 20.6707 25.6943 20.6269 25.7516 20.5941C25.8088 20.5613 25.872 20.54 25.9374 20.5316C26.0029 20.5232 26.0693 20.5277 26.133 20.545C26.1967 20.5623 26.2564 20.5919 26.3086 20.6322C26.3609 20.6726 26.4047 20.7228 26.4375 20.78L28.4375 24.28C28.4814 24.356 28.5045 24.4423 28.5045 24.53C28.5045 24.6178 28.4814 24.704 28.4375 24.78Z" fill="#1C2024"/>
</svg>
