<svg width="48" height="49" viewBox="0 0 48 49" fill="none" xmlns="http://www.w3.org/2000/svg">
<rect y="0.0300293" width="48" height="48" rx="24" fill="#DDEAF8" fill-opacity="0.08"/>
<path d="M29.5 18.53H18.5C18.2348 18.53 17.9804 18.6354 17.7929 18.8229C17.6054 19.0105 17.5 19.2648 17.5 19.53V28.53C17.5 28.7952 17.6054 29.0496 17.7929 29.2371C17.9804 29.4247 18.2348 29.53 18.5 29.53H29.5C29.7652 29.53 30.0196 29.4247 30.2071 29.2371C30.3946 29.0496 30.5 28.7952 30.5 28.53V19.53C30.5 19.2648 30.3946 19.0105 30.2071 18.8229C30.0196 18.6354 29.7652 18.53 29.5 18.53ZM22.4375 27.28C22.5038 27.3956 22.5215 27.5329 22.4866 27.6615C22.4517 27.7901 22.3672 27.8997 22.2516 27.966C22.1359 28.0323 21.9987 28.0499 21.8701 28.0151C21.7414 27.9802 21.6319 27.8956 21.5656 27.78L19.5656 24.28C19.5224 24.2045 19.4997 24.1189 19.4997 24.0319C19.4997 23.9449 19.5224 23.8593 19.5656 23.7838L21.5656 20.2838C21.6314 20.1682 21.7405 20.0834 21.8688 20.0482C21.997 20.013 22.1341 20.0302 22.2497 20.096C22.3653 20.1618 22.45 20.2708 22.4853 20.3991C22.5205 20.5274 22.5033 20.6644 22.4375 20.78L20.5756 24.03L22.4375 27.28ZM28.4375 24.28L26.4375 27.78C26.3717 27.8952 26.2628 27.9796 26.1348 28.0145C26.0068 28.0494 25.8702 28.0321 25.755 27.9663C25.6398 27.9005 25.5555 27.7916 25.5205 27.6636C25.4856 27.5356 25.5029 27.399 25.5688 27.2838L27.4275 24.0338L25.5656 20.78C25.5328 20.7228 25.5116 20.6596 25.5031 20.5942C25.4947 20.5287 25.4993 20.4622 25.5165 20.3986C25.5338 20.3349 25.5634 20.2752 25.6038 20.2229C25.6441 20.1707 25.6943 20.1269 25.7516 20.0941C25.8088 20.0613 25.872 20.04 25.9374 20.0316C26.0029 20.0232 26.0693 20.0277 26.133 20.045C26.1967 20.0623 26.2564 20.0919 26.3086 20.1322C26.3609 20.1726 26.4047 20.2228 26.4375 20.28L28.4375 23.78C28.4814 23.856 28.5045 23.9423 28.5045 24.03C28.5045 24.1178 28.4814 24.204 28.4375 24.28Z" fill="#EDEEF0"/>
</svg>
